<mxfile host="65bd71144e">
    <diagram id="0gvh2OAsj7FihdWG6O1i" name="Page-1">
        <mxGraphModel dx="969" dy="838" grid="1" gridSize="10" guides="1" tooltips="1" connect="1" arrows="1" fold="1" page="1" pageScale="1" pageWidth="1169" pageHeight="827" math="0" shadow="0">
            <root>
                <mxCell id="0"/>
                <mxCell id="1" parent="0"/>
                <mxCell id="27" value="" style="group" vertex="1" connectable="0" parent="1">
                    <mxGeometry x="270" y="320" width="80" height="80" as="geometry"/>
                </mxCell>
                <mxCell id="2" value="" style="ellipse;whiteSpace=wrap;html=1;aspect=fixed;" vertex="1" parent="27">
                    <mxGeometry width="80" height="80" as="geometry"/>
                </mxCell>
                <mxCell id="26" value="" style="verticalLabelPosition=bottom;verticalAlign=top;html=1;shape=mxgraph.basic.pie;startAngle=0.5593628396370643;endAngle=0.75;fillColor=#2d2e2f;strokeColor=#23445d;fillStyle=auto;gradientColor=none;" vertex="1" parent="27">
                    <mxGeometry width="80" height="80" as="geometry"/>
                </mxCell>
                <mxCell id="55" value="" style="group" vertex="1" connectable="0" parent="1">
                    <mxGeometry x="480" y="180" width="80" height="360" as="geometry"/>
                </mxCell>
                <mxCell id="46" value="" style="group" vertex="1" connectable="0" parent="55">
                    <mxGeometry y="140" width="80" height="80" as="geometry"/>
                </mxCell>
                <mxCell id="47" value="" style="ellipse;whiteSpace=wrap;html=1;aspect=fixed;" vertex="1" parent="46">
                    <mxGeometry width="80" height="80" as="geometry"/>
                </mxCell>
                <mxCell id="48" value="" style="verticalLabelPosition=bottom;verticalAlign=top;html=1;shape=mxgraph.basic.pie;startAngle=0.5593628396370643;endAngle=0.75;fillColor=#fad7ac;strokeColor=#b46504;fillStyle=auto;" vertex="1" parent="46">
                    <mxGeometry width="80" height="80" as="geometry"/>
                </mxCell>
                <mxCell id="49" value="" style="group" vertex="1" connectable="0" parent="55">
                    <mxGeometry width="80" height="80" as="geometry"/>
                </mxCell>
                <mxCell id="50" value="" style="ellipse;whiteSpace=wrap;html=1;aspect=fixed;" vertex="1" parent="49">
                    <mxGeometry width="80" height="80" as="geometry"/>
                </mxCell>
                <mxCell id="51" value="" style="verticalLabelPosition=bottom;verticalAlign=top;html=1;shape=mxgraph.basic.pie;startAngle=0.5593628396370643;endAngle=0.75;fillColor=#e1d5e7;strokeColor=#9673a6;fillStyle=auto;" vertex="1" parent="49">
                    <mxGeometry width="80" height="80" as="geometry"/>
                </mxCell>
                <mxCell id="52" value="" style="group" vertex="1" connectable="0" parent="55">
                    <mxGeometry y="280" width="80" height="80" as="geometry"/>
                </mxCell>
                <mxCell id="53" value="" style="ellipse;whiteSpace=wrap;html=1;aspect=fixed;" vertex="1" parent="52">
                    <mxGeometry width="80" height="80" as="geometry"/>
                </mxCell>
                <mxCell id="54" value="" style="verticalLabelPosition=bottom;verticalAlign=top;html=1;shape=mxgraph.basic.pie;startAngle=0.5593628396370643;endAngle=0.75;fillColor=#d5e8d4;strokeColor=#82b366;fillStyle=auto;" vertex="1" parent="52">
                    <mxGeometry width="80" height="80" as="geometry"/>
                </mxCell>
                <mxCell id="59" style="edgeStyle=none;html=1;exitX=1;exitY=0;exitDx=0;exitDy=0;entryX=0;entryY=0.5;entryDx=0;entryDy=0;" edge="1" parent="1" source="2" target="50">
                    <mxGeometry relative="1" as="geometry"/>
                </mxCell>
                <mxCell id="60" style="edgeStyle=none;html=1;exitX=1;exitY=0.5;exitDx=0;exitDy=0;entryX=0;entryY=0.5;entryDx=0;entryDy=0;" edge="1" parent="1" source="2" target="47">
                    <mxGeometry relative="1" as="geometry"/>
                </mxCell>
                <mxCell id="61" style="edgeStyle=none;html=1;exitX=1;exitY=1;exitDx=0;exitDy=0;entryX=0;entryY=0.5;entryDx=0;entryDy=0;" edge="1" parent="1" source="2" target="53">
                    <mxGeometry relative="1" as="geometry"/>
                </mxCell>
                <mxCell id="62" value="" style="group" vertex="1" connectable="0" parent="1">
                    <mxGeometry x="670" y="180" width="80" height="360" as="geometry"/>
                </mxCell>
                <mxCell id="63" value="" style="group" vertex="1" connectable="0" parent="62">
                    <mxGeometry y="140" width="80" height="80" as="geometry"/>
                </mxCell>
                <mxCell id="64" value="" style="ellipse;whiteSpace=wrap;html=1;aspect=fixed;" vertex="1" parent="63">
                    <mxGeometry width="80" height="80" as="geometry"/>
                </mxCell>
                <mxCell id="65" value="" style="verticalLabelPosition=bottom;verticalAlign=top;html=1;shape=mxgraph.basic.pie;startAngle=0.5593628396370643;endAngle=0.75;fillColor=#fad7ac;strokeColor=#b46504;fillStyle=auto;" vertex="1" parent="63">
                    <mxGeometry width="80" height="80" as="geometry"/>
                </mxCell>
                <mxCell id="66" value="" style="group" vertex="1" connectable="0" parent="62">
                    <mxGeometry width="80" height="80" as="geometry"/>
                </mxCell>
                <mxCell id="67" value="" style="ellipse;whiteSpace=wrap;html=1;aspect=fixed;" vertex="1" parent="66">
                    <mxGeometry width="80" height="80" as="geometry"/>
                </mxCell>
                <mxCell id="68" value="" style="verticalLabelPosition=bottom;verticalAlign=top;html=1;shape=mxgraph.basic.pie;startAngle=0.5593628396370643;endAngle=0.75;fillColor=#e1d5e7;strokeColor=#9673a6;fillStyle=auto;" vertex="1" parent="66">
                    <mxGeometry width="80" height="80" as="geometry"/>
                </mxCell>
                <mxCell id="69" value="" style="group" vertex="1" connectable="0" parent="62">
                    <mxGeometry y="280" width="80" height="80" as="geometry"/>
                </mxCell>
                <mxCell id="70" value="" style="ellipse;whiteSpace=wrap;html=1;aspect=fixed;" vertex="1" parent="69">
                    <mxGeometry width="80" height="80" as="geometry"/>
                </mxCell>
                <mxCell id="71" value="" style="verticalLabelPosition=bottom;verticalAlign=top;html=1;shape=mxgraph.basic.pie;startAngle=0.5593628396370643;endAngle=0.75;fillColor=#d5e8d4;strokeColor=#82b366;fillStyle=auto;" vertex="1" parent="69">
                    <mxGeometry width="80" height="80" as="geometry"/>
                </mxCell>
                <mxCell id="73" style="edgeStyle=none;html=1;exitX=1;exitY=0.5;exitDx=0;exitDy=0;entryX=0;entryY=0.5;entryDx=0;entryDy=0;" edge="1" parent="1" source="50" target="67">
                    <mxGeometry relative="1" as="geometry"/>
                </mxCell>
                <mxCell id="74" style="edgeStyle=none;html=1;exitX=1;exitY=0.5;exitDx=0;exitDy=0;entryX=0;entryY=0.5;entryDx=0;entryDy=0;" edge="1" parent="1" source="47" target="64">
                    <mxGeometry relative="1" as="geometry"/>
                </mxCell>
                <mxCell id="75" style="edgeStyle=none;html=1;exitX=1;exitY=0.5;exitDx=0;exitDy=0;entryX=0;entryY=0.5;entryDx=0;entryDy=0;" edge="1" parent="1" source="53" target="70">
                    <mxGeometry relative="1" as="geometry"/>
                </mxCell>
                <mxCell id="76" value="" style="group" vertex="1" connectable="0" parent="1">
                    <mxGeometry x="860" y="320" width="80" height="80" as="geometry"/>
                </mxCell>
                <mxCell id="77" value="" style="ellipse;whiteSpace=wrap;html=1;aspect=fixed;" vertex="1" parent="76">
                    <mxGeometry width="80" height="80" as="geometry"/>
                </mxCell>
                <mxCell id="78" value="" style="verticalLabelPosition=bottom;verticalAlign=top;html=1;shape=mxgraph.basic.pie;startAngle=0.5593628396370643;endAngle=0.75;fillColor=#33FF99;strokeColor=#666666;fillStyle=auto;fontColor=#333333;gradientColor=#FF66FF;" vertex="1" parent="76">
                    <mxGeometry width="80" height="80" as="geometry"/>
                </mxCell>
                <mxCell id="79" style="edgeStyle=none;html=1;exitX=1;exitY=0.5;exitDx=0;exitDy=0;entryX=0;entryY=0;entryDx=0;entryDy=0;" edge="1" parent="1" source="67" target="77">
                    <mxGeometry relative="1" as="geometry"/>
                </mxCell>
                <mxCell id="80" style="edgeStyle=none;html=1;exitX=1;exitY=0.5;exitDx=0;exitDy=0;" edge="1" parent="1" source="64">
                    <mxGeometry relative="1" as="geometry">
                        <mxPoint x="860" y="359.6470588235295" as="targetPoint"/>
                    </mxGeometry>
                </mxCell>
                <mxCell id="81" style="edgeStyle=none;html=1;exitX=1;exitY=0.5;exitDx=0;exitDy=0;" edge="1" parent="1" source="70" target="77">
                    <mxGeometry relative="1" as="geometry"/>
                </mxCell>
            </root>
        </mxGraphModel>
    </diagram>
    <diagram id="_AbinS22xeQgzpXH0r27" name="Page-2">
        <mxGraphModel dx="330" dy="285" grid="1" gridSize="10" guides="1" tooltips="1" connect="1" arrows="1" fold="1" page="1" pageScale="1" pageWidth="1169" pageHeight="827" math="0" shadow="0">
            <root>
                <mxCell id="0"/>
                <mxCell id="1" parent="0"/>
                <mxCell id="GowCKP9zJk06O4tKPLup-1" value="" style="edgeStyle=none;orthogonalLoop=1;jettySize=auto;html=1;endArrow=none;endFill=0;curved=1;dashed=1;shadow=0;" edge="1" parent="1">
                    <mxGeometry width="80" relative="1" as="geometry">
                        <mxPoint x="400" y="520" as="sourcePoint"/>
                        <mxPoint x="480" y="520" as="targetPoint"/>
                        <Array as="points">
                            <mxPoint x="420" y="520"/>
                            <mxPoint x="440" y="470"/>
                            <mxPoint x="460" y="520"/>
                        </Array>
                    </mxGeometry>
                </mxCell>
                <mxCell id="GowCKP9zJk06O4tKPLup-2" value="" style="curved=1;endArrow=none;html=1;strokeColor=#006eaf;strokeWidth=2;fontColor=#0a0a0a;endFill=0;noJump=0;flowAnimation=0;ignoreEdge=0;orthogonalLoop=0;orthogonal=0;enumerate=0;comic=0;fixDash=0;snapToPoint=0;entryX=0.994;entryY=0.42;entryDx=0;entryDy=0;entryPerimeter=0;targetPerimeterSpacing=0;shadow=0;endSize=6;" edge="1" parent="1">
                    <mxGeometry width="50" height="50" relative="1" as="geometry">
                        <mxPoint x="563" y="435" as="sourcePoint"/>
                        <mxPoint x="562.17974" y="373.84000000000015" as="targetPoint"/>
                        <Array as="points">
                            <mxPoint x="563" y="415"/>
                            <mxPoint x="590" y="395"/>
                            <mxPoint x="560" y="380"/>
                        </Array>
                    </mxGeometry>
                </mxCell>
                <mxCell id="GowCKP9zJk06O4tKPLup-3" value="" style="edgeStyle=none;orthogonalLoop=1;jettySize=auto;html=1;endArrow=none;endFill=0;curved=1;" edge="1" parent="1">
                    <mxGeometry width="80" relative="1" as="geometry">
                        <mxPoint x="400" y="520" as="sourcePoint"/>
                        <mxPoint x="480" y="520" as="targetPoint"/>
                        <Array as="points">
                            <mxPoint x="410" y="520"/>
                            <mxPoint x="430" y="480"/>
                            <mxPoint x="440" y="530"/>
                            <mxPoint x="450" y="480"/>
                            <mxPoint x="470" y="520"/>
                        </Array>
                    </mxGeometry>
                </mxCell>
            </root>
        </mxGraphModel>
    </diagram>
</mxfile>